<?xml version="1.0" encoding="utf-8"?>
<!-- Generator: Adobe Illustrator 19.1.0, SVG Export Plug-In . SVG Version: 6.00 Build 0)  -->
<svg version="1.1" id="Layer_1" xmlns="http://www.w3.org/2000/svg" xmlns:xlink="http://www.w3.org/1999/xlink" x="0px" y="0px"
	 viewBox="114 36 129 129" style="enable-background:new 114 36 129 129;" xml:space="preserve">
<style type="text/css">
	.st0{fill:#231F20;}
	.st1{fill:#FFFFFF;}
</style>
<rect x="114" y="36" class="st0" width="129" height="129"/>
<path class="st1" d="M184.3,100.5l51-51c1.6-1.6,1.6-4.2,0-5.8c-0.8-0.8-1.8-1.2-2.9-1.2c-1.1,0-2.1,0.4-2.9,1.2l-51,51l-51-51
	c-1.6-1.6-4.2-1.6-5.8,0c-1.6,1.6-1.6,4.2,0,5.8l51,51l-51,51c-1.6,1.6-1.6,4.2,0,5.8c0.8,0.8,1.8,1.2,2.9,1.2
	c1.1,0,2.1-0.4,2.9-1.2l51-51l51,51c1.6,1.6,4.2,1.6,5.8,0c1.6-1.6,1.6-4.2,0-5.8L184.3,100.5z"/>
</svg>
