<?xml version="1.0" encoding="utf-8"?>
<!-- Generator: Adobe Illustrator 19.1.0, SVG Export Plug-In . SVG Version: 6.00 Build 0)  -->
<svg version="1.1" id="Layer_1" xmlns="http://www.w3.org/2000/svg" xmlns:xlink="http://www.w3.org/1999/xlink" x="0px" y="0px"
	 viewBox="85 -7.7 191.3 191.3" style="enable-background:new 85 -7.7 191.3 191.3;" xml:space="preserve">
<style type="text/css">
	.st0{fill:#231F20;}
	.st1{fill:#FFFFFF;stroke:#FFFFFF;stroke-width:4;stroke-miterlimit:10;}
</style>
<g>
	
		<image style="overflow:visible;opacity:0.6;" width="196" height="196" xlink:href="457A9580A3B76542.png"  transform="matrix(1 0 0 1 83 -8)">
	</image>
	<g>
		<circle class="st0" cx="180.7" cy="88" r="88.6"/>
	</g>
</g>
<rect x="120" y="27.3" class="st0" width="121.4" height="121.4"/>
<path class="st1" d="M184.8,88l35.9-35.9c1.1-1.1,1.1-3,0-4.1c-0.6-0.6-1.3-0.8-2-0.8c-0.8,0-1.5,0.3-2,0.8l-35.9,35.9l-35.9-35.9
	c-1.1-1.1-3-1.1-4.1,0c-1.1,1.1-1.1,3,0,4.1L176.6,88l-35.9,35.9c-1.1,1.1-1.1,3,0,4.1c0.6,0.6,1.3,0.8,2,0.8c0.8,0,1.5-0.3,2-0.8
	l35.9-35.9l35.9,35.9c1.1,1.1,3,1.1,4.1,0c1.1-1.1,1.1-3,0-4.1L184.8,88z"/>
</svg>
