<?xml version="1.0" encoding="utf-8"?>
<!-- Generator: Adobe Illustrator 19.1.0, SVG Export Plug-In . SVG Version: 6.00 Build 0)  -->
<svg version="1.1" id="Layer_1" xmlns="http://www.w3.org/2000/svg" xmlns:xlink="http://www.w3.org/1999/xlink" x="0px" y="0px"
	 viewBox="0 0 1920 489.5" enable-background="new 0 0 1920 489.5" xml:space="preserve">
<path fill-rule="evenodd" clip-rule="evenodd" fill="none" stroke="#4C7171" stroke-miterlimit="10" d="M1920,53.1
	c-8.1-1.4-16.3-2.6-24.4-3.7c-30.6-4.1-58-18.4-87.9-24.5c-7.3-1.5-14.4-2.2-22.2-1.7c-6.9,0.5-13.4,1.9-20.5,2.3
	c-8.6,0.5-15,3-23.4,4c-8.2,1-14.9,1-22.8,2.8c-8.4,2-16.9,3.8-25.6,4.9c-10.3,1.3-19.8,1.3-29.6,4.1c-9.2,2.6-17.6,5.9-27.1,8.3
	c-15.1,3.7-31.4,9.5-47.3,11.1c-4.3,0.4-8.7,0.1-12.9,0.6c-18,2.1-24.1,8.2-35.4,17.6c-13.3,11-29.3,23.3-47.7,30.2
	c-16.6,6.2-34.1,4.2-52,4.6c-8.5,0.2-8.5,0.6-16.5,4.1c-11.6,5.1-24,9.2-36.1,13.5c-13.7,4.9-24.1,4.6-39,4.5
	c-18.5-0.2-36.3,3.8-53.8,7.9c-19.7,4.6-41.4,4.8-61.6,1.1c-17.6-3.2-34.6-9.3-52-13.2c-20.2-4.6-39.4-9.7-58.2-16.6
	c-10.7-3.9-18.3-9.6-30.1-12.4c-10.3-2.4-20.9-4.2-31.2-6.6c-8-1.8-16-3.3-23-6.5c-2.8-1.3-4.4-3.1-6.7-4.4c-4.2-2.3-6.5-2.9-12-4.2
	c-13.3-3.2-25.2-10.7-38.8-11.4c-31.9-1.6-67.4,2.6-95.5,13.3c-8.4,3.2-17.2,4.7-26.1,7.1c-11.9,3.2-20.5,8.1-31.4,12.5
	c-16.2,6.6-29.3,7.1-47.3,7c-13.5-0.1-26.7-0.8-39.1,2.5c-14.6,3.9-27.5,8.3-43,8.6c-21.9,0.3-43.2-5.5-64.4-8.4
	c-21.9-3.1-38.1,5.4-57.2,11.2c-23.1,7.1-46.9,4.9-71.4,6c-12.1,0.5-28,1.5-39.2,4.7c-9.4,2.7-18.9,6.1-27.2,10.3
	c-3.8,2-8.1,5.6-12.7,6.7c-9.9,2.5-24.4-0.3-34.4-1.1c-15.9-1.3-30.5-3.8-45.5-7.6c-5.7-1.5-7.8-1.9-13.4-2
	c-11.5-0.3-25.3,1.9-36.5-0.4c-8.2-1.6-10.3-4.9-15.8-8.5c-4.9-3.2-15.5-2.9-21.7-1.7c-4.6,0.8-8.5,2.9-13.2,3.6
	c-9.3,1.5-20.7,1.4-30.2,2.1c-9.6,0.7-17.4-0.3-25.9,2.5c-7.9,2.6-15.1,5.1-21.8,9.1c-8.2,5-12.8,6.4-23.9,6.6
	c-20.8,0.3-41.1-2.1-61.8-2.4c-9.2-0.1-11.7,1.4-19.8,2.4c-20.3,2.7-42.2-2.8-62.4,1.5c-0.5,0.1-0.9,0.2-1.4,0.3"/>
<path fill-rule="evenodd" clip-rule="evenodd" fill="none" stroke="#314646" stroke-miterlimit="10" d="M1920,206
	c-3.4,0.4-6.7,0.8-9.9,1c-0.3,0-0.5,0.1-0.7,0.3c-2.9,1.9-10.2,1.3-12.6,3.5c-0.2,0.2-0.6,0.3-0.9,0.3c-18,0.7-31.1,4.5-49.3,6.9
	c-0.2,0-0.3,0.1-0.4,0.1c-5,2.3-12,3.5-17.8,5.4c-5.9,1.8-10.4,4.6-16.6,6.2c-14,3.6-31,3.3-45.2,6.5c-4.9,1.1-8.8,2.7-12.9,4.9
	c-0.1,0.1-0.2,0.1-0.4,0.2c-4.7,1.2-11.1,1.4-13.8,3.7c-0.3,0.2-0.6,0.4-1,0.4c-13,0.6-21.7,3.7-30.5,6.7c-0.3,0.1-0.6,0.1-0.9,0
	c-20.5-5.2-51.9-0.6-74.6-3.8c-0.1,0-0.3,0-0.4,0c-10.8,1.8-20.3,6.3-31.1,7.7c-5.3,0.7-10.1,0.1-14.9,0.6
	c-5.1,0.6-9.1,2.3-14.5,3.3c-11.6,2.2-28.3,2.9-36.5,6.5c-3.5,1.5-5.3,1.6-9.6,2.8c-1.6,0.5-3.3,1.8-4.7,2.3
	c-6.3,2.1-13.7,5.2-20.3,6.6c-10.1,2.1-23.7,2.3-32.9,4.1c-0.8,0.2-1.3,0.9-1.2,1.7c0.1,0.9-0.5,1.6-1.4,1.7
	c-8.9,0.7-17.8,1.4-25.4,2.7c-4.7,0.8-8.3,2.2-13,2.7c-2.6,0.3-5.6-0.3-8.8-0.1c-2.6,0.1-5.6,0.9-8.1,1c-0.3,0-0.6,0-0.8,0
	c-4.5-0.4-9-0.8-13.6-0.8c-11.3-0.1-22.6,0.5-34.1,1.5c-0.1,0-0.2,0-0.4,0c-0.5-0.1-1.1-0.2-1.6-0.2c-0.3,0-0.6,0-0.9,0.1
	c-0.3,0.2-0.7,0.3-1,0.4c-0.1,0-0.3,0.1-0.4,0.1c-5.8,0.6-11.6,1.2-17.4,1.9c-1.2,0.1-2.3,0.2-3.3,0.4c-7.9,1-15.8,2.1-23.8,3.2
	c0,0-0.1,0-0.1,0c-1.7,0.1-3.5,0.3-5.3,0.5c-12.5,1.5-23.8,2.7-37.4,2.9c-0.2,0-2.4-0.7-4.2-0.7c-1.6,0.1-2.3,0.5-4.6,0.5
	c-9.6,0.2-20.7-0.4-31,0.1c-6.4,0.3-12.3,1.9-18.3,2c-8.7,0.1-16.6-2-25-1.6c-5.9,0.3-13,1.8-19.7,3.2c-6.3,1.3-13.4,3.8-18.8,3.8
	c-4.3,0-6.5-1.6-8.3-1.9c-1.3-0.2-3.1,0.1-4.4-0.1c-2.4-0.4-3.6-1-6.3-1.3c-9.3-0.9-17.4-0.2-27.5-0.5c-13.7-0.4-26.8-1-39.3-1.8
	c-7.1-0.5-14.3-0.3-20.8-0.9c-1.8-0.2-3.3-0.9-5.2-1.3c-7.6-1.3-14.8-1.6-21.3-2.7c-0.1,0-0.1,0-0.2,0c-2.7-0.7-2.7-0.7-5.2-0.6
	c-2.4,0-4.4,0.2-7.6,0.4c-0.2,0-0.4,0-0.5,0c-11.4-2.7-23.9-0.6-36.1-0.5c-1.3,0-2.1-0.6-4.2-0.6c-5.8-0.2-10.3,1-15.8,0.9
	c-8.5-0.1-16.8-2.4-23.7-2.2c-2.9,0.1-4.9,1-8.1,1c-5.9,0.2-12.4-0.5-18.7-0.3c-6.1,0.2-12,1.7-17,1.5c-7.6-0.3-15-3.8-22-3.9
	c-0.1,0-0.2,0-0.3,0c-2.8-0.7-6.1-0.3-9-1.7c-0.2-0.1-0.4-0.2-0.7-0.2c-16.1-0.3-30.3-2.9-43.6-4.8c-13.7-2-26.8-4-37.7-7.7
	c-0.1,0-0.1,0-0.2,0c-6.7,2.7-6-1.8-8.6-3c-0.2-0.1-0.5-0.1-0.7-0.1c-14.2-0.5-22.1-3.9-31.9-6.4c-0.1,0-0.1,0-0.2,0
	c-5.7-0.6-12.3-3-15.4-3.8c-9.4-2.4-26.3-1.8-39.2-2.4c-10-0.5-19.3-0.1-27.3-0.5c-0.2,0-0.3,0-0.5,0.1c-3.1,1-9.2,0.1-12,1.3
	c-0.3,0.1-0.5,0.2-0.8,0.2c-15.5-1-27.9,0.3-43.9,0.4c-0.8,0-1.6,0.1-2.4,0.2c-4.9,0.9-10.8,1.1-16,1.8c-2.1,0.2-4,0.6-5.9,1
	c-0.1,0-0.1,0-0.2,0c-10.5,0.8-21.1,1.5-31.8,2c0,0-0.1,0-0.1,0c-6.6-0.1-13.1-0.3-19.4,0.2c-2.4,0.2-4.6,0.4-6.8,0.8
	c-0.1,0-0.1,0-0.2,0c-36.4,1-72.9,0.2-107.7-3.1c0,0-0.1,0-0.1,0c-1.6-0.3-3.3-0.6-4.8-0.9c-0.1,0-0.2,0-0.3,0
	c-0.8,0-1.7,0.1-2.5,0.1c-0.1,0-0.2,0-0.3,0c-19.6-2.1-38.6-4.9-56.7-8.8c-2.7-0.6-5.5-0.6-8.2-0.1c-11,2-21.4,4.1-30.1,7
	c-2.3,0.8-4.8,1.1-7.2,1c-9.9-0.7-20.1-1.1-33.8,0.8c-0.3,0-0.6,0-0.9-0.1c-3.6-1.5-11.3-0.4-17.1-0.4c-0.1,0-0.2,0-0.3,0
	c-5.2-1-10.2-1.5-16.2-1.5c-17.2,0.2-36.8,3.9-53.9,3.7c-7.6-0.1-13.5-1.5-20.7-1.9c-7.2-0.4-15.6,0-22-0.9c-0.1,0-0.2,0-0.3,0
	c-21.7,1.7-37.9,1.1-59.1,4.2c-0.3,0-0.6,0-0.9-0.1c-3.3-1.4-11.8,0.6-15.6-0.5c-0.2-0.1-0.4-0.1-0.5-0.1c-10.6,1.3-22.7,1.8-36,3.5
	c-1.5,0.2-3.1,0.4-4.7,0.6c-0.8,0.1-1.4,0.7-1.4,1.5L0,385"/>
<path fill-rule="evenodd" clip-rule="evenodd" fill="none" stroke="#231F20" stroke-miterlimit="10" d="M1920,360.2
	c-10.5-2.2-21.9-3.8-36.6-2.9c-4.2-4-14.7-3.1-22.5-4.3c-6.6-2.9-13-4.8-20.7-5.8c-22-2.8-47.7,0.6-69.5-2.9
	c-9.7-1.5-17-5.3-26.3-7.2c-9.2-2-20.1-2.8-28.2-5.8c-28.3-0.8-49.1-4.9-77-2.9c-3.7-3.9-16-1.2-20.7-4.3c-13.8,0.4-29.5-0.7-47,0
	c-22.1,0.9-50.5-1.2-67.6,4.3c-5.7,1.8-18.2,7.5-28.2,8.7c-18.2,5.7-33.4,13.8-58.2,14.4c-5.3,2.7-7.8,7.4-16.9,7.2
	c-20.1,8.5-43.4,12.9-67.6,17.3c-23.7,4.3-49.3,10.1-77,10.1c-5.9,3.9-11.5,2.5-16.9,4.3c-11.9-0.2-26.4,8.3-39.4,8.7
	c-8.6,0.3-18-3.5-28.2-4.3c-10.6-0.9-22,0.6-31.9,0c-5.2-0.3-8.3-2.5-13.1-2.9c-11.6-1-26.8,4.4-41.3,4.3
	c-9.4-0.1-16.4-3.2-26.3-2.9c-3.7,0.1-5.2,1.5-7.5,1.4c-20.8-0.7-41.1-6.3-62,0c-5.6-0.6-9.1-1.3-13.2-1.4c-4.3-0.1-4.4-0.1-9.4,1.4
	c-11.6,2.5-23.9,2.8-37.6,5.8c-3.3,0.7-6.4,2.5-9.4,2.9c-11.3,1.2-23.4,0.6-35.7,1.4c-21.6,1.5-44.1,2.5-67.6,2.9
	c-17.3,0.3-30.8-1.8-47,0c-4.7,0.5-7.1,2-11.3,2.9c-2.3,0.5-5.2-0.5-7.5,0c-3.2,0.7-7.8,4.5-15,4.3c-9.2-0.3-20-6.6-30.1-10.1
	c-10.8-3.7-22-7.7-31.9-8.6c-14-1.4-28.4,3.6-43.2,2.9c-10.2-0.5-19.3-4.7-30.1-5.8c-17.2-1.7-36.3-0.6-52.6-1.4
	c-3.9-0.2-4.9-1.2-7.5-1.5c-3.1-0.2-7.2,1.5-7.5,1.5c-22.9-0.9-41.5-4.5-62-8.7c-15.2-3.1-30.7-2.9-45.1-7.2
	c-0.9-0.3-1.2-2.6-1.9-2.9c-10.3-3.6-28.7-0.5-37.6-8.7c-19.2,4.2-39.2,1.5-58.2,0c-8.9-0.7-18.9-1.9-28.2-2.9
	c-4-0.4-8.8-2.5-13.2-2.9c-5.4-0.5-10.7,0.8-15,0c-7.6-1.4-13.1-5-20.7-7.2c-23.9-6.8-56.4-7.8-80.8-15.8c-6.1-2-12.1-5.2-20.7-7.2
	c-3.6-0.8-7.6-0.5-11.3-1.4c-3.7-0.9-5.7-3.5-9.4-4.3c-11.3-2.4-24.6-0.7-31.9-8.7c-21.5-3.2-35.8-11.9-63.9-10.1
	c-6.4-1.2-12.4-4.6-18.8-5.8c-3.9-0.7-9.2,0.6-13.1,0c-0.4-0.1-0.9-0.2-1.3-0.3"/>
</svg>
